<?xml version="1.0" encoding="UTF-8"?>
<svg id="Layer_1" data-name="Layer 1" xmlns="http://www.w3.org/2000/svg" width="799" height="969.53" viewBox="0 0 799 969.53">
  <g id="states">
    <path d="M246.31,477.68l1.74-1.88,4.04-.85,3.91.19,5.4-3.44,4.04-.86,3.88-2.23.84-1.44,3.28-.66,1.98-1.74-.11-1.19,3.44-3.14,5.41-1.83,7.22,1.97,2.62-.08,3.89-1.43,3.48.1,9.39-2.87,1.1.32,2.2.64,3.51,2.53,2.01.69,3.82.62,2.89-1.37,3.37-.28,2.44.78,2.31,1.83,6.89,2.25,1.37,2.89.39,4.57,1.16,1.32,5-.3,1.12-1.92,3.58-3.38,1.9-.51,5.43-.21,2.44.78,3.75-1.2,2.6,2.16,2-.12,3.8-4.05,6.6-1.95,9.47-4.14,3.48-2.96,1.75-1.07,4.24-.11,2.97,1.25,5.21,5.13,2.25.82,7.52-.77,7.69-1.64,3.7-1.39,7.13-.67,3.79-4.88,2.84-1.56,6.83-1.82,6.75-3.63,3.22-1.67,5.51-.66,3.8-1.01,6.26-1.67,2.9.24,9.93-1.64,4.27-6.84,2.17-1.8,2.79-.95,4.46,2.27,3.53.27,3.64-1.58,1.81-.08,6.32-.67,4.07-1.5,6.22-1.06,5.88,1.48,6.7-.78,3.07-1.43,3.06-2.25,4.9-2.95,2.09-2.8,20.98-.55,51.67-1.31,21.93-.84,1.81-.08,35.73-.93,11.89-.38,8.47-.26,38.62-1.55h6.72l2.28,2.44.38,2.14,1.45.82,1.15,4.99,2.31,3.25,2.99,2.03,2.02,2.92,1.32,4.12,1.93,1.11,2.64-1.54,3.63.64,1.79,3.59,1.47,1.64,3.27-.69,3.63.63,3.5,3.12,1.1.31,1.29,2.5.37,5.82,4.74,5.42.62,2.28,2.05,2.29.09,1.81-5.41,7.8-1.11,3.36-1.81,2.33.46,6.18-3.03,3.07-.77,3.88-2.33,2.67-.76,2.45-3.6,7.7.35,4.99-1.14,2.55-1.59,3.9-.27,4.96-1.25,4.4-.2,3.72-1.59,1.66-.71,2.63-1.88,1.33-.83,3.68-1.14,2.55-4.6,5.52.34,2.76-1.09,2.74,1.18,1.3.15,2.81,1.48,2.44-1.72,6.37-1.2,2.36-2.86,2.2-.25,2.1-2.8,5.44-.13,2.47-3.08,1.45-3.14,2.68-1.44-.02-2.78,1.77-1.76,2.51.06,3.24-1.4,1.6-.14,2.47-1.45,1.41-.12,3.29-1.89,3.56-.24,4.33-2.06,2.1801.26,3.19-1.48,2.83-1.95.33-1.6801,4.31-2.3199,1.24.93,3.4.38,4.37-1.23,2.97-1.27,1.36.83,3.03,3.85,3.63.8,1.41-1.32,3.4-1.46,1.41.28,1.75,4.77,3.99,3.0099-.2,1.9-2.75,1.57-.23,1.3,2.5,4.77,3.99,1.14-2.55,5.65.5,1.19,6.58,3.06-.01,3.15,1.78.93,1.17-.14,2.48-1.16,1.73-1.94,5.6-3.27,1.5-.93,1.06.67,4.69,2.96,1.84.9,1.79-1.0099,2.3,1.09,1.73-1.96,2.56-1.04,5.16.86,2.4-1.71.47.4,2.93-.68,2.01.22,1.56-3.51,1.36.72,2.65-1.24-.07.88,21.87.11,5.65,3.79,83.94,1.27,27.02,1.21,28.25,3.86,85.67-11,.32-50.31,2.35-19.13.66-39.41,1.61-31.15,1-19.84,1.02-32.12.41-20.38.53-11.93-.09-3.65.16-27.08.05-25.44.01-12.97.58-21.12.07-11.01.26-23.75.14h-10.05l-24.24-.15-15.82-.13-9.34-.41-18.76-.38-3.22.23-10.92-.2-13.61-.31-27.33-1.02-15.68-.4-15.78-.78-13.8-.28-9.15-.48-12.55-.21-13.65.27-24.72-.53-17.32-.41-10.35-1.19-8.7.4-11.97.43-8.81-.79-8.65-.21-10.92-.25-3.31.64-7.13-.61-9.66-.17-31.13-1.6-8.75-.61-1.02-1.55-5.04-5.19-2.75-1.12-2.1-4.11-3.05-3.0699.54-4.17-1.31-2.7.59-3.98-1.36-2.08-.17-2.99-3.25-4.63.61-2.37-.14-5.21-2.03-2.32.56-1.75.58-7.22-.68-7.29,1.61-2.43.11-5.08,1.52-2.8,1.88-5.33.42-2.32-1.13-2.75.36-3.32-1.34-5.92-3.42-2.16-1.73-7.44-1.94-1.93-2.16-.46-.81-6.26-1.08-3.36-2.52-3.4,1.24-.72,1.75-4.28,1.33-1.15,2.52-4.47,2.36-5.04,3.58-9.8,1.4-5.6.73-4.23-.49-1.89,1.38-1.77,2.4-6.47,1.15-6.55,1.58-6.46-1.33-5.12,1.42-3.19,4.44-2.54,2.02,1.5.8-1.61,6.13-7.83,1.81-1.67.21,2.37,1.58-.2-.02,3.85,1.16,1.32,3.36.36-1.32-3.51-1.02-.75-.06-2.61-1.94-1.93,1.71-2.86-2.92.54-.37,2.52-3.44.87-1.32,2.76-3.8,4.2-.39-.71,2.6-4.9,2.68-6.14,2.78-7.38,2.29-6.85,1.63-6.27,1.62-8.7,1.73-5.9,2.27-10.08,1.74-9.75,3.29-21.0601-.24-.15,2.02-11.84-.51-4.32,1.13-2.72,1.27-9.22-.31-2.7599.89-2.85-.78-1.43.87-5.28.89-2.05,2.26-11.71,2.42-2.44,2.1.27-.78-2.23-3.8,2.6.59-10.28.8-2.43,1.44-11.7,2.61-1.69,1.12,1.94,1.57-.2.7-2-3.97-1.21-1.96.3.97-4.1-.3-1.9399-1.24-.09,1.45-3.82.45-3.76-.75-5.27-.58-.66.31-3.53,1.04-.67-.17-3.81,1.33-1.15,1.49-5.24,2.51-2.07.95-1.86-1.55-2.84.26-2.91,1.61-8.72-.02-2.43.75-1.81-.96-.57.4-3.95,2.27-2.21,1.03-3.91,1.68-10.77-.31-2.76,1.37-8.06-.03-4.86-1.7-4.23,1.13-1.1,1.93-3.54,2.32-2.83-.65-3.28-1-.76-2.13-4.32.97-4.1.98-2.49,1.38-7.25,1.15,1.32-1.65,3.06.51,3.53,4.56,4.3,1.84-1.49.13-1.86-1.29-1.09-1.62-5.47-4.64-3.06.93-2.68,1.23-8.63,1.46-2.21.12-2.67,3.86.02-1.45-2.47-1.57.2-1.7,2.07-.85-5.67-1.73-1.99-.11-2.01-1.53-1.22,1.32-1.97,1.08-8.4-.21-8.69-2.23-5.51,1.75-1.07.56-1.77,3.18-1.02,1.07-4.55-.02-8.73-1.63-7.91-1.8-5.43-3.19-7.72-2.12-3.52-.3-1.95.49-4.4,1.96.51,1.06,2.57,2.43.8,4.17,4.41,5.67.76,5.41-1.81,3.51-.5,3.55-1.94,1.39.66,3.82,2.26,3.56-1.13,6.04.67,4.52-.56,3.56-1.13,2.09.27,2.92,2.69,1.79,3-.57,6.45,5.56,5.06.81-.01,7.81.41,6.58-3.54,4.55-2,4.81.58.86.99,9.58,6.45,3.89,4.07,5.45,3.06,1.65,3.23.61,3.9,2.07,2.51,1.61,4.67,2.12,2.7.61,3.9-.5,2.78,2.39,6.08-.16,2.48-1.11,3.54-.08,2.06,2.47,4.03.74,2.85-.29,4.34-1.37,6.46,1.03,3.18,4.8,2.81,3.6,2.92,2.92,1.07,3.52.3,5.98,1.9,6.55,2.55,3.6,2.11,5.7-1.49,2.49.97,1.98,2.94,3.44.73,4.52-.58,4.75-2.05Z" fill="#eee"/>
    <path d="M84.09,354.65l-.56,1.77-2.42.02.21-3.11-2.39-2.23.06-4.49.65-2.2,1.44,1.66-.08,1.24,2.72,1.94-1.41,2.4,1.78,3ZM206.38,259.08l-2.72,3.57-3.55-4.37,1.21-2.36,2.31-2.04.52.48,2.39,1.41-.16,3.31ZM209.49,252.34l-3.73,1.18-3.38-1.35-.86-1,2.76-3.38,1.61-.02,1.21,2.34,1.85.12.54,2.11ZM185.5,252.53l-1.6,1.65-.68-1.87.97-2.5,1.31,2.72ZM214.71,247.49l-1.21,2.36-1.33-.47-3.72-7.39,2.53,1.99,3.73,3.51ZM189.22,255.23l-1.7.44-.99-3.82-2.73-3.57-.63-1.67.83-2.26-.03-3.26,6.66-3.19-2.11,2.81.53,1.29-.82,3.07,2.8,5.39-1.81,4.77ZM229.61,224.55l3.66.87,1.82,1.57-5.38,2.64-2.15,3.43-2.19-1.46,2.38-4.1-1.34-.47-1.55,1.02-1.07,6.83-2.38-.6-.82-1.62,1.28-4.43-.97-3.01,1.26-2.17.6-6.3,2.67-2.95.63-3.85,2.33,1.22-.88,2.08,2.4,3.04-.84,1.45.99,4.65-.45,2.16ZM219.62,180.97l2.11,2.71,1.88-.5.4,1.54-.8,5.53,1.97,2.96-1.46,5.29,2.24,1.66-4.16,1.1-1.07-2.58-1.38-1.47-1.41,1.59-1.1-1.14.08-5.95-1.35-2.92,2.82-2.38.15-4.13,1.08-1.31ZM208.58,135.56l1.4,2.29-.22,2.31-1.36.98-3.62-2.32-1.05-1.77-.04-4.09-.95-.57,1.92-1.94,1.42,5.57.85.18-.07-3.46-1.36-2.93,2.21-1.61.35,1.35.52,6.01ZM216.68,86.02l1.34,2.1,1.22,3.17-1.64,2.28,4.18,2.17,2.96,2.91,1.06,1.77-.31,1.93-2.02,1.56-2.36.22-1.72-2-1.57-.61-6.5,2.96.84,3.26-1.22,1.56-4.11.47-2.11,1.18,1.1,1.97,2.59-.9,4.06-.67,1.81.75,2.1,1.91,1.73,3.64.36,2.98,1.3,1.91.56,4.57-1.17,1.74,1.46,3.31.4,3.17.96.57-.38,4.81,1.37-.16,1.62-3.09-.64-3.32.6-1.59-1.17-2.97,3.03.01,4.22,6.26,3.76,2.08,2.56.55.29,5.04,1.72,2,.04,4.09-.69,2.03-1.73,1.89-.03,2.26-1.6.02-3.43-1.55-1.24-1.72.44-2.98-2.46-4.88-3.03-.02-1.64,1.46-2.55,1.09-.53-1.29,1.02-2.32-1.44-1.67-2.18-.65-2.34-2.86,1.25-2.18-1.73-3.64,1.61-4.73-.32-3.61-.74-2.88-1.29-1.09-2.83-.07-2.17.99-.6-3.13-2.43-2.43-4.38-2.94-.63-1.67,1.66-4.55,2.02-2.38.91-3.53,1.64-1.46,3.07-5.33.87-2.9.3-3.57,2.55-.27.48,1.11,1.87-2.14ZM226.59,89.2l-.47.67.17.13-.86,1.9-1.99-.7-.26-2.6-1.24-1.73-.5-2.74,1.01-2.32-2.74-.5-.54,2.61-2.13.36-.83,1.45-3.36.28-2.09-1.91.21-2.31,1.78-1.71-.89-4.28-1.05-.95.79-1.65,5.7-2.14.15,1.4,1.57,6.15,1.28.28.1-4.34,1.46-.59,1.56,4.51,1.62,1.62,1.49,2.69.06,6.42ZM200.68,72.2l-1.07,2.14-3.66-2.52,1.03-1.51,3.35-.27.35,2.16ZM220.35,68.81l-4.34,1.16-2.45-.17-.5-2.74.97-1.7-.59-3.13.89-.44,1.16,2.15,4.23,3.19.63,1.68ZM197.74,76.48l-.11,2.7,1.5,4.32-2.13-.46-3.3,1.29.07-2.89-2.75-1.33-1.7.46-1.34-2.11-1.75-.56.53-4.25,2.76-2.59-.65-4.96,2.78-.94,1.23.9,1.43,1.68-1.36,5.7,1.96,2.97,2.83.07ZM202.24,66.45l-3.33,2.73-1.35-2.92-.5-2.75,2.11-2,1.42.86,1.92,2.77-.27,1.31ZM209.93,65.84l.44,1.73-3.49.52.45-3-1.76-1.38,1.19-4.01,1.36-.98,1.24,1.72-.18.87,1.86,1.77.2,1.58-1.31,1.18ZM212.64,57.51l-.46,1.36-2.7-1.13,2.15-1.81,1.01,1.58ZM190.54,62.37l-1.5,2.04-4.86.68-2.96-3.73,3.67-1.39,2.14,1.28,1.79-.07,1.72,1.19ZM218.06,46.4l-.98.88-2.47-1.81,1.91-1.95,1.54,2.88ZM182.74,68.14l1.39,1.48-1.08,1.32-2.46-.99-1.3,2.81,1.16,3.8,1.81,1.57,2.6-.07-.36,1.73-1.14-.51-5.58-.57-3.67-3.34-4.88-2.61-2.73-4.41.4-2.36-1.34-2.11.27-2.13,3.42-3.17-1.71-2.01,1.17-.92,2.46.16,1.75,1.39-.74,1.84,4.09,2.61.81,1.63,2.89,1.08,1.2,1.53-1.36,1.8,2.93.45ZM166.02,56.15l-1.95,4.22-.91-1.2,2.86-3.02ZM216.87,50.42l.74,3.71-2.27-1.04-3.44-4.02-1.45-4.13-2.7-1.13-.12-2.03.83-2.28,1.72,2.01,2.55,5.29,2.66,1.75,1.48,1.87ZM193.54,44.1l3.51,1.94,3.33,2.82,4.55,2.07-.69,2.04-3.99,2.5-1.58,3.3-2.99-2.29-1.68-3.45-1.39-1.49.36-2.56-.87-2.64-2.64.7,1.04,5.68,2,1.53,1.69,5.09-2.34,1.86-4.21-.73-1.57-1.43-.23-4.05-1.08.49-1.53-2.05-.79.82,1.6,4.72-1.37.15-1.58-2.25-1.84.7-.02-2.46,1.77-3.35,2.53-2.73,2.25-1.42,1.77-3.35,3.49-.52,2.5.36ZM181.62,46.25l-2.82,2.39-.63-2.5-1.57-.61,1.97-2.58,2.73-.32.32,3.62ZM163.26,47.64l2.04.9.98-.88.73,2.07-1.41.78-3.6-1.51-1.49-2.68,2.22.02.53,1.3ZM172.4,257.58l-.38-.08-.09.07-.9-.01-3.07,2.23.39.72,3.58-2.94.47.01,1.76.38-.44,3.79-3.18.22-2.35,1.85.39,1.53,1.98-1.75,1.38.66,2.45-1.46,1.25-3.8,2.04.08,3.72-3.63.22-1.49,1.96,1.32-1.4,3.23-2.21,1.6-.98,1.69.49,2.72-2.22.79-.93,1.88-1.7.45.29,1.14,5.57-3.5,1.07,2.58,2.82,3.13,1.05-5.38.11-2.68-1.02-3.2,2.08-.55,2.07-2.18,1.75-.25.63,1.67-.97,2.5,1.44,1.66.51-5.85,1.36-1.79,2.28,4.92.11,2.01,6.93,4.91,1.27-.54,1.24.09,2.9-4.44,2.78-1.76,1.15-3.36,2.12-1.18,1.05-4.56,1.41-1.6.44-2.97,2.76-4.2.59-2.41-1.64-3.24.52-.34,3.2,2.22,2.11,2.71,4.25,3.17,2.77-3.39-.49-1.1-2.62-.74,1.3-2.79.95-.25,7.47-2.39,1.45-1.4-.06-5.71-2.07-3.34-.7-3.49-2.33-1.22,1.5-1.22.69-2.84-3.56-5.19.04-5.33-1.74-2.81,3.01-2.44,2.4,3.05,1.8-.07.34-4.18-2.73-2.75-4.24-2.36-1.21-3.15,1.88-1.32.25-2.93,2.54-1.91.78-2.45-.98-3.02.46-1.35-1.3-2.73-.04-4.08,4.97-5.01,1.29-3.61-.49-1.11,1.42-4.67,1.17-1.75.2-3.13,5.34-1.21,2.85-3.01-.03-3.27,1.48-2.86-1.28-1.09-1.89.5-3.06-2.47-.54-2.11-1.37.16-2.29-2.67-.45-1.73-1.56-.6-2.19-5.37.32-1.93-.55-2.11,1.63-3.1-1.29-1.09-.45-2.55-1.77-2.2-2.12.37-1.15-1.34-2.36,1.04,1.21,2.34-1.96,2.58-1.46.59.17,3.03,2.88,4.98,1.43.85,4.31,5,1.93,4.41-2.89-1.08-.31-1.97-2.63-3.19-1.99-.7-2.07-3.35-1.88,1.32-2.24-1.66-.11-2.02-1.94-5.23-.26-2.59.98-6.42,2.4-.84,1.61.8,1.83-2.33,4.12,1.16,1.48,1.04.14.58,1.67-3.73,1.54-1.85-1.66-.99-1.65-4.08-1.57-.61-3.43-3.19-1.38-.66.18-1.69-2.41-2.05.3-.67v-.13l.42-.6-.29-5.87-.93-2.84,2.27.22,1.59-1.66-1.06-2.59-.25-6.51-1.05-.95.59-2.42,1.37.66,3.71-2.84,1.2-3.19-2.02-3.17-1.51-.41-2.11-2.73-1.19-1.53,1.11-1.95-.74-3.7-1.23-.09-.22-3.23,2.48-2.92-1.87-2.59-2.14-2.1-2.93-.45-2.78.95-3.03,3.89-1.9,3.59-2.06-2.53,2.46-5.39-2.82-3.98-2.46-.16-1.15-6.9-2.32-1.23-3.47-3.39.27-1.31,3.04-2.25.64-2.23-2.14-2.11-1.64,1.47-2.88-1.08.21-2.32,2.58-2.55,3.65,2.53,1.27-.55-.31-2.8-1.49-2.69,59.44,1.37,31.42,1.02,56.32.05,25.18.19,13.73.2,29.15-.08,34,.02,11.18-.36,31.5-.35,36.49-.5,26.03-.54,27.2-.67,30.79-.84,28.99-.78-.05-.19,40.3-1.45,27.58-.83,8.34-.46.96,21.01,1.82,47.55.76,15.66.89,24.45.28,13.09.24,9.19.48,9.33,1.29,29.64,1.89,37.85.77,16.4.68,14.57.62,18.06,1.9,40.82,1.73,39.39.66,15.96.69,1.03-1.03,5.19-1.43,2.22.96,2.8,2.92,1.04.3,2.58,3.28,2.37-.17,3.11,2.13,1.86,1.53,4.89-.45,3.6,3.89,3.83-.95,2.5.19,2.2-1.48,2.03-.7401,3.27-1.98.95.28,1.76,2.15.43,1.51,1.83,2.27,6.11.59,2.9h-6.72l-38.62,1.55-8.47.26-11.89.38-35.73.93-1.81.08-21.93.84-51.67,1.31-20.98.55-2.09,2.8-4.9,2.95-3.06,2.25-3.07,1.43-6.7.78-5.88-1.48-6.22,1.06-4.07,1.5-6.32.67-1.81.08-3.64,1.58-3.53-.27-4.46-2.27-2.79.95-2.17,1.8-4.27,6.84-9.93,1.64-2.9-.24-6.26,1.67-3.8,1.01-5.51.66-3.22,1.67-6.75,3.63-6.83,1.82-2.84,1.56-3.79,4.88-7.13.67-3.7,1.39-7.69,1.64-7.52.77-2.25-.82-5.21-5.13-2.97-1.25-4.24.11-1.75,1.07-3.48,2.96-9.47,4.14-6.6,1.95-3.8,4.05-2,.12-2.6-2.16-3.75,1.2-2.44-.78-5.43.21-1.9.51-3.58,3.38-1.12,1.92-5,.3-1.16-1.32-.39-4.57-1.37-2.89-6.89-2.25-2.31-1.83-2.44-.78-3.37.28-2.89,1.37-3.82-.62-2.01-.69-3.51-2.53-2.2-.64-1.1-.32-9.39,2.87-3.48-.1-3.89,1.43-2.62.08-7.22-1.97-5.41,1.83-3.44,3.14.11,1.19-1.98,1.74-3.28.66-.84,1.44-3.88,2.23-4.04.86-5.4,3.44-3.91-.19-4.04.85-1.74,1.88-4.75,2.05-4.52.58-3.44-.73-1.98-2.94-2.49-.97-5.7,1.49-3.6-2.11-6.55-2.55-5.98-1.9-3.52-.3-2.92-1.07-3.6-2.92-4.8-2.81-1.03-3.18,1.37-6.46.29-4.34-.74-2.85-2.47-4.03.08-2.06,1.11-3.54.16-2.48-2.39-6.08.5-2.78-.61-3.9-2.12-2.7-1.61-4.67-2.07-2.51-.61-3.9-1.65-3.23-5.45-3.06-3.89-4.07-9.58-6.45-.86-.99-4.81-.58-4.55,2-6.58,3.54-7.81-.41-.81.01-5.56-5.06.57-6.45-1.79-3-2.92-2.69-2.09-.27-3.56,1.13-4.52.56-6.04-.67-3.56,1.13-3.82-2.26-1.39-.66-3.55,1.94-3.51.5-5.41,1.81-5.67-.76-4.17-4.41-2.43-.8-1.06-2.57-1.96-.51-.49,4.4-.15-1.39-3.58-1.31,1.9-7.61.71-6.69.46-10.09.15-12.86-.37-11.72.94-1.87,1.39,2.29-.6,2.39,2.46,4.86-.46,10.09-.84,2.26.87,8.12.2,7.88.72,1.24,2.7-1.31,1.91,1.13.59-4.02,2.98-2.6-1.41-3.91,1.04-.68.4,3.15,1.52-.39-.78-3.05-2.44-2.42.18-1.68,1.61-.82.41-2.35,1.62.8,1.18-.92-.09-5.06-2.25-2.47-.59-3.11-2.53-1.99.07-2.87,2.82,1.51-1.12-3.58,1.84-1.49.83-3.88,1.23.08,5.96-4.4-1.25-1.71-2.24-.84-1.3-2.72-2.18.97-.03,2.25-3.04-.02-2.91-1.89.12,2.82-1.09,1.3-2.86-1.7-.37.91-6.82-3.73.04-7.75.13-1.87-2.16-10.85-.87-2.62,1.8-.88,2.43,2.42-1.07,2.12.77,2.24,4.09.98,2.16,2.9.7-1.2-3.54-3.57.7-2.83,1.56-1.01,3.13-.41,1.59-2.45,2.66.12,7.67-2.41,1.94-1.12,3.18-1.03-5.76-1.96-6.03.14.51-1.97-5.03.09-1.91-1.95,1.27-1.35-.95-.57-.78-3.05-3.15-2.04-5.83.09-2.32,1.22-.47,1.34,1.16,2.96-.16,4.12.64,3.3-2.09.54-.6,1.59-1.76.25.99-8,.05-6.95-.23-7.28-1.81-15.85-2.5-11.39-1.81-2.38-1.57.2-2.26-6.55-1.67-1-.7-5.94-.67-1.05-.06-9.79-.76-7.77-.99-7.91-2-10.31-1.35-3.74-.55-4.56-.77-3.07-2.86-2.52-1.53-2.87-.16-3.03-1.19-2.35-3.85-1.65-1.48-2.68-.01-1.64-4.65-2.46-2.09-1.91-.72-2.06.07-3.71-1.43-1.67-.2-2.4-1.04-.14.6-2.41-.81-2.45-.04-6.54-.96-3.02,1.02-3.96-3.5-9.93,2.83-2.38,1.35-4.25-1.25-2.54,2.03-2.38.55-2.6-.53-2.12,1.93-1.12.93-4.34-1.72-2.01-1.6.01-3.1-5.13,1.32-1.17,5.43.01,1.85.95,1.43,2.5,2.83-.75,2.46,1,2.48,2.63,1.04.14,9.58,6.91,3.04,2.48,1.94-.3,1.8,1.57,3.74,1.28.15,1.39,2.61.75,1.46-1.41,10.05,5.56,3.42,1.56-.41,2.36,3.93,2.04.91,1.2,7.2,2.2,2.36-.21,2.71,1.13,3.16-.22,1.48,1.05,3.63-.75.81.81,3.64.06,1.28-.54,4.11.35,1.13-1.12,3.22.79,3.09,1.85.29,1.16,3.51,1.12,4.1-2.11,3.9,2.66,4.16-.27.53,1.29,5.69,1.78,7.33.31,2.41-.84,3.64.88,3.02-1.61,2.96-2.63,5.48-.63,3.58,3.77,1.66.99,2.31,5.13-.6,1.59.64,2.5,2.16,3.73,1.52.41-1.08-4.22.31-1.93-1.29-1.91,2.31-1.22,4.81-.87,2.8.69-1.19,4.01,4.51,2.7,1.65,4.07-.93,1.88,1.29,1.1,1.92-1.95.71-5.1-2.04-.9-.63-1.67-3.23-1.61,1.3-1.98-.63-1.68,4.51-4.47,7.65-.81-.6,1.6,1.15,2.15-3.01,1.62-1.96,2.57,3.18,6.13,2.75,1.32,1.38,6.19,1.3,1.91,1.89.32.54,2.11-.88,2.07.32,3.61,2.06-2.19.37,3.8,2.12,3.53-1.93,1.95-3.98-.59.94,3.65-.46,1.35-4.1,2.92-1.23-.08-.51,5.87-1.06,2.94-2.3,2.86-.26,2.93,1.15,1.33-4.11,1.29-1.28-1.09.68-2.84.9-.44.34-4.18,1.17-1.75,1.22-6.25-1.8-4.65-1.23-.08-.59,2.41.87,1.81-.6,2.41-2.92,1.19.96-3.33-2.23-.84.19,5.47,1.34,1.29-1.21,2.37-1.19.1-1.09,4.39-.85.63.45,2.54-1.64,2.27.08,3.46-2.89-.26-.69,2.03-3.82,2.43-.56.97-2.6,5.6-2.44,3.09-1.85,5.4-4.12,5.17-.95.25-2.08,6.06-.93,1.88-1.94,6.64,1.68,1.81,2.7.31.6-2.4,3.14,1.21,4.92-.48,2.97-2.62,7.18-1.89,6.49-6.2-.25-.96-2.02,1.55-2.98.99-3.81,2.44-3.41.9-3.44,2.33-1.21,2.36-1.51.4-.78-1.43-5.93-1.09-.49-1.92,3.68-7.71,4.82-6.38.92-3.51,4.69-5.33.97-3.32,4.15-1.91.59-3.23,3.87-1.43.71.43,1.59-2.47,1.44,1.67,2.92-2,4.62-1.63.83-2.27-.09-5.09,1.87-2.95,1.48-3.67,2.07-1.36,1.01-3.14,4.69-4.52.95-.25,1.49-2.85,2.7.31-.48,4.43,1.71.36-.68-6.57-2.15-6.81-1.62-.8-.11-2.02,1.32-.35.78,2.25,4.03.78,2.28,1.03,1.13,4.41.3,6.68,2.45,3.24-1.87,2.95,1.57.61.83,2.44-.16,2.5-1.28.55-5.92-.28-.07,2.07-2.95,3.44-.93,1.89-5.13-6.63-1.32,1.17,1.97,2.96,2.43.79.09,5.09-.36,1.73,2.2,2.28-.67,4.48.44.9-1.62,3.91-4.16-3.61-.55-2.92-1.53-1.23.51-1.98-1.25-1.71-1.13,1.11-.92,2.7-.03,2.26,1.99-.12-.44,2.99,1.15,1.33.93-1.07,3.42.73.4,2.35-4.53,2.02,2.34,1.22,2.64-1.51,1.42.03,1.44-2.22,3.38-3.35,2.12,3.53-1.12,1.11-.48,4.43,2.04.07,2.76,2.13-3.5,5.22-.44,2.98.26,2.59-1.91,3.57,1.13,3.59-3.49,6.84,2.14,5.98-1.54,2.65-2.26,1.41-1.26-2.53-1.13.3-5.91-2.52-1.8.06,1.85-4.57,2.23-.79-1.4-2.29,3.39-2.53,1.22-1.55-.28-4.22-.62-.04-.58,3.22-5.33,2.84.14.57-3.25,2.29.06,1.01-2.6,5.59.04,4.07,2.53,1.99.08,3.45-1.6,1.65-1.23-.09.4,2.35-.74,2.64-1.7.45-.21-2.39-1.33-.47-3.58-7.63,1.52-4.29,2.77-3.38-.69-2.68.54-2.59-1.06-2.58-1.81-5.45-.92,2.69.67,1.05-1.13,5.82-1.12,1.93-1.75.25-2.12,1.99-3.96,1.86.03,4.08-1.22.73.44,1.72-.83,2.26.58,1.48-2.47-.17-3.27.66-.53-1.29-5.31.58-.91-1.19,2.41-1.66-.77-1.43-3.86,3.88,3.23.78,5.03-.1.81.81,4.69-.62.77.62-2.76,4.19-1.53-.41-2.87,2.18-2.28-.04ZM180.32,3.8l1.11,3.62-5.7.49-.46-4.2,5.05.09Z" fill="#eee" fill-rule="evenodd"/>
  </g>
  <g id="bubbles">
    <circle cx="411.85" cy="714.75" r="30" fill="rgba(255, 0, 255, .5)" stroke="#f0f" stroke-linecap="round" stroke-linejoin="round" stroke-width="1.2"/>
    <circle cx="446.92" cy="228.61" r="30" fill="rgba(255, 0, 255, .5)" stroke="#f0f" stroke-linecap="round" stroke-linejoin="round" stroke-width="1.2"/>
  </g>
  <g id="lines">
    <path d="M314.06,457.26l3.51,2.53,2.01.69,3.82.62,2.89-1.37,3.37-.28,2.44.78,2.31,1.83,6.89,2.25,1.37,2.89.39,4.57,1.16,1.32,5-.3,1.12-1.92,3.58-3.38,1.9-.51,5.43-.21,2.44.78,3.75-1.2,2.6,2.16,2-.12,3.8-4.05,6.6-1.95,9.47-4.14,3.48-2.96,1.75-1.07,4.24-.11,2.97,1.25,5.21,5.13,2.25.82,7.52-.77,7.69-1.64,3.7-1.39,7.13-.67,3.79-4.88,2.84-1.56,6.83-1.82,6.75-3.63,3.22-1.67,5.51-.66,3.8-1.01,6.26-1.67,2.9.24,9.93-1.64,4.27-6.84,2.17-1.8,2.79-.95,4.46,2.27,3.53.27,3.64-1.58,1.81-.08,6.32-.67,4.07-1.5,6.22-1.06,5.88,1.48,6.7-.78,3.07-1.43,3.06-2.25,4.9-2.95,2.09-2.8,20.98-.55,51.67-1.31,21.93-.84,1.81-.08,35.73-.93,11.89-.38,8.47-.26,38.62-1.55h6.72M73.4,376.14l.49-4.4,1.96.51,1.06,2.57,2.43.8,4.17,4.41,5.67.76,5.41-1.81,3.51-.5,3.55-1.94,1.39.66,3.82,2.26,3.56-1.13,6.04.67,4.52-.56,3.56-1.13,2.09.27,2.92,2.69,1.79,3-.57,6.45,5.56,5.06.81-.01,7.81.41,6.58-3.54,4.55-2,4.81.58.86.99,9.58,6.45,3.89,4.07,5.45,3.06,1.65,3.23.61,3.9,2.07,2.51,1.61,4.67,2.12,2.7.61,3.9-.5,2.78,2.39,6.08-.16,2.48-1.11,3.54-.08,2.06,2.47,4.03.74,2.85-.29,4.34-1.37,6.46,1.03,3.18,4.8,2.81,3.6,2.92,2.92,1.07,3.52.3,5.98,1.9,6.55,2.55,3.6,2.11,5.7-1.49,2.49.97,1.98,2.94,3.44.73,4.52-.58,4.75-2.05" fill="none" stroke="rgba(0, 0, 0, .2)" stroke-linecap="round" stroke-linejoin="round"/>
    <path d="M246.31,477.68l1.74-1.88,4.04-.85,3.91.19,5.4-3.44,4.04-.86,3.88-2.23.84-1.44,3.28-.66,1.98-1.74-.11-1.19,3.44-3.14,5.41-1.83,7.22,1.97,2.62-.08,3.89-1.43,3.48.1,9.39-2.87,1.1.32,2.2.64M752.48,411.97l2.28,2.44.38,2.14,1.45.82,1.15,4.99,2.31,3.25,2.99,2.03,2.02,2.92,1.32,4.12,1.93,1.11,2.64-1.54,3.63.64,1.79,3.59,1.47,1.64,3.27-.69,3.63.63,3.5,3.12,1.1.31,1.29,2.5.37,5.82,4.74,5.42.62,2.28,2.05,2.29.09,1.81-5.41,7.8-1.11,3.36-1.81,2.33.46,6.18-3.03,3.07-.77,3.88-2.33,2.67-.76,2.45-3.6,7.7.35,4.99-1.14,2.55-1.59,3.9-.27,4.96-1.25,4.4-.2,3.72-1.59,1.66-.71,2.63-1.88,1.33-.83,3.68-1.14,2.55-4.6,5.52.34,2.76-1.09,2.74,1.18,1.3.15,2.81,1.48,2.44-1.72,6.37-1.2,2.36-2.86,2.2-.25,2.1-2.8,5.44-.13,2.47-3.08,1.45-3.14,2.68-1.44-.02-2.78,1.77-1.76,2.51.06,3.24-1.4,1.6-.14,2.47-1.45,1.41-.12,3.29-1.89,3.56-.24,4.33-2.06,2.1801.26,3.19-1.48,2.83-1.95.33-1.6801,4.31-2.3199,1.24.93,3.4.38,4.37-1.23,2.97-1.27,1.36.83,3.03,3.85,3.63.8,1.41-1.32,3.4-1.46,1.41.28,1.75,4.77,3.99,3.0099-.2,1.9-2.75,1.57-.23,1.3,2.5,4.77,3.99,1.14-2.55,5.65.5,1.19,6.58,3.06-.01,3.15,1.78.93,1.17-.14,2.48-1.16,1.73-1.94,5.6-3.27,1.5-.93,1.06.67,4.69,2.96,1.84.9,1.79-1.0099,2.3,1.09,1.73-1.96,2.56-1.04,5.16.86,2.4-1.71.47.4,2.93-.68,2.01.22,1.56-3.51,1.36.72,2.65-1.24-.07.88,21.87.11,5.65,3.79,83.94,1.27,27.02,1.21,28.25,3.86,85.67-11,.32-50.31,2.35-19.13.66-39.41,1.61-31.15,1-19.84,1.02-32.12.41-20.38.53-11.93-.09-3.65.16-27.08.05-25.44.01-12.97.58-21.12.07-11.01.26-23.75.14h-10.05l-24.24-.15-15.82-.13-9.34-.41-18.76-.38-3.22.23-10.92-.2-13.61-.31-27.33-1.02-15.68-.4-15.78-.78-13.8-.28-9.15-.48-12.55-.21-13.65.27-24.72-.53-17.32-.41-10.35-1.19-8.7.4-11.97.43-8.81-.79-8.65-.21-10.92-.25-3.31.64-7.13-.61-9.66-.17-31.13-1.6-8.75-.61-1.02-1.55-5.04-5.19-2.75-1.12-2.1-4.11-3.05-3.0699.54-4.17-1.31-2.7.59-3.98-1.36-2.08-.17-2.99-3.25-4.63.61-2.37-.14-5.21-2.03-2.32.56-1.75.58-7.22-.68-7.29,1.61-2.43.11-5.08,1.52-2.8,1.88-5.33.42-2.32-1.13-2.75.36-3.32-1.34-5.92-3.42-2.16-1.73-7.44-1.94-1.93-2.16-.46-.81-6.26-1.08-3.36-2.52-3.4,1.24-.72,1.75-4.28,1.33-1.15,2.52-4.47,2.36-5.04,3.58-9.8,1.4-5.6.73-4.23-.49-1.89,1.38-1.77,2.4-6.47,1.15-6.55,1.58-6.46-1.33-5.12,1.42-3.19,4.44-2.54,2.02,1.5.8-1.61,6.13-7.83,1.81-1.67.21,2.37,1.58-.2-.02,3.85,1.16,1.32,3.36.36-1.32-3.51-1.02-.75-.06-2.61-1.94-1.93,1.71-2.86-2.92.54-.37,2.52-3.44.87-1.32,2.76-3.8,4.2-.39-.71,2.6-4.9,2.68-6.14,2.78-7.38,2.29-6.85,1.63-6.27,1.62-8.7,1.73-5.9,2.27-10.08,1.74-9.75,3.29-21.0601-.24-.15,2.02-11.84-.51-4.32,1.13-2.72,1.27-9.22-.31-2.7599.89-2.85-.78-1.43.87-5.28.89-2.05,2.26-11.71,2.42-2.44,2.1.27-.78-2.23-3.8,2.6.59-10.28.8-2.43,1.44-11.7,2.61-1.69,1.12,1.94,1.57-.2.7-2-3.97-1.21-1.96.3.97-4.1-.3-1.9399-1.24-.09,1.45-3.82.45-3.76-.75-5.27-.58-.66.31-3.53,1.04-.67-.17-3.81,1.33-1.15,1.49-5.24,2.51-2.07.95-1.86-1.55-2.84.26-2.91,1.61-8.72-.02-2.43.75-1.81-.96-.57.4-3.95,2.27-2.21,1.03-3.91,1.68-10.77-.31-2.76,1.37-8.06-.03-4.86-1.7-4.23,1.13-1.1,1.93-3.54,2.32-2.83-.65-3.28-1-.76-2.13-4.32.97-4.1.98-2.49,1.38-7.25,1.15,1.32-1.65,3.06.51,3.53,4.56,4.3,1.84-1.49.13-1.86-1.29-1.09-1.62-5.47-4.64-3.06.93-2.68,1.23-8.63,1.46-2.21.12-2.67,3.86.02-1.45-2.47-1.57.2-1.7,2.07-.85-5.67-1.73-1.99-.11-2.01-1.53-1.22,1.32-1.97,1.08-8.4-.21-8.69-2.23-5.51,1.75-1.07.56-1.77,3.18-1.02,1.07-4.55-.02-8.73-1.63-7.91-1.8-5.43-3.19-7.72-2.12-3.52-.3-1.95" fill="none" stroke="rgba(0, 0, 0, .2)" stroke-linecap="round" stroke-linejoin="round"/>
    <path d="M84.09,354.65l-.56,1.77-2.42.02.21-3.11-2.39-2.23.06-4.49.65-2.2,1.44,1.66-.08,1.24,2.72,1.94-1.41,2.4,1.78,3M206.38,259.08l-2.72,3.57-3.55-4.37,1.21-2.36,2.31-2.04.52.48,2.39,1.41-.16,3.31M209.49,252.34l-3.73,1.18-3.38-1.35-.86-1,2.76-3.38,1.61-.02,1.21,2.34,1.85.12.54,2.11M185.5,252.53l-1.6,1.65-.68-1.87.97-2.5,1.31,2.72M214.71,247.49l-1.21,2.36-1.33-.47-3.72-7.39,2.53,1.99,3.73,3.51M189.22,255.23l-1.7.44-.99-3.82-2.73-3.57-.63-1.67.83-2.26-.03-3.26,6.66-3.19-2.11,2.81.53,1.29-.82,3.07,2.8,5.39-1.81,4.77M229.61,224.55l3.66.87,1.82,1.57-5.38,2.64-2.15,3.43-2.19-1.46,2.38-4.1-1.34-.47-1.55,1.02-1.07,6.83-2.38-.6-.82-1.62,1.28-4.43-.97-3.01,1.26-2.17.6-6.3,2.67-2.95.63-3.85,2.33,1.22-.88,2.08,2.4,3.04-.84,1.45.99,4.65-.45,2.16M219.62,180.97l2.11,2.71,1.88-.5.4,1.54-.8,5.53,1.97,2.96-1.46,5.29,2.24,1.66-4.16,1.1-1.07-2.58-1.38-1.47-1.41,1.59-1.1-1.14.08-5.95-1.35-2.92,2.82-2.38.15-4.13,1.08-1.31M208.58,135.56l1.4,2.29-.22,2.31-1.36.98-3.62-2.32-1.05-1.77-.04-4.09-.95-.57,1.92-1.94,1.42,5.57.85.18-.07-3.46-1.36-2.93,2.21-1.61.35,1.35.52,6.01M216.68,86.02l1.34,2.1,1.22,3.17-1.64,2.28,4.18,2.17,2.96,2.91,1.06,1.77-.31,1.93-2.02,1.56-2.36.22-1.72-2-1.57-.61-6.5,2.96.84,3.26-1.22,1.56-4.11.47-2.11,1.18,1.1,1.97,2.59-.9,4.06-.67,1.81.75,2.1,1.91,1.73,3.64.36,2.98,1.3,1.91.56,4.57-1.17,1.74,1.46,3.31.4,3.17.96.57-.38,4.81,1.37-.16,1.62-3.09-.64-3.32.6-1.59-1.17-2.97,3.03.01,4.22,6.26,3.76,2.08,2.56.55.29,5.04,1.72,2,.04,4.09-.69,2.03-1.73,1.89-.03,2.26-1.6.02-3.43-1.55-1.24-1.72.44-2.98-2.46-4.88-3.03-.02-1.64,1.46-2.55,1.09-.53-1.29,1.02-2.32-1.44-1.67-2.18-.65-2.34-2.86,1.25-2.18-1.73-3.64,1.61-4.73-.32-3.61-.74-2.88-1.29-1.09-2.83-.07-2.17.99-.6-3.13-2.43-2.43-4.38-2.94-.63-1.67,1.66-4.55,2.02-2.38.91-3.53,1.64-1.46,3.07-5.33.87-2.9.3-3.57,2.55-.27.48,1.11,1.87-2.14M226.59,89.2l-.47.67.17.13-.86,1.9-1.99-.7-.26-2.6-1.24-1.73-.5-2.74,1.01-2.32-2.74-.5-.54,2.61-2.13.36-.83,1.45-3.36.28-2.09-1.91.21-2.31,1.78-1.71-.89-4.28-1.05-.95.79-1.65,5.7-2.14.15,1.4,1.57,6.15,1.28.28.1-4.34,1.46-.59,1.56,4.51,1.62,1.62,1.49,2.69.06,6.42M200.68,72.2l-1.07,2.14-3.66-2.52,1.03-1.51,3.35-.27.35,2.16M220.35,68.81l-4.34,1.16-2.45-.17-.5-2.74.97-1.7-.59-3.13.89-.44,1.16,2.15,4.23,3.19.63,1.68M197.74,76.48l-.11,2.7,1.5,4.32-2.13-.46-3.3,1.29.07-2.89-2.75-1.33-1.7.46-1.34-2.11-1.75-.56.53-4.25,2.76-2.59-.65-4.96,2.78-.94,1.23.9,1.43,1.68-1.36,5.7,1.96,2.97,2.83.07M202.24,66.45l-3.33,2.73-1.35-2.92-.5-2.75,2.11-2,1.42.86,1.92,2.77-.27,1.31M209.93,65.84l.44,1.73-3.49.52.45-3-1.76-1.38,1.19-4.01,1.36-.98,1.24,1.72-.18.87,1.86,1.77.2,1.58-1.31,1.18M212.64,57.51l-.46,1.36-2.7-1.13,2.15-1.81,1.01,1.58M190.54,62.37l-1.5,2.04-4.86.68-2.96-3.73,3.67-1.39,2.14,1.28,1.79-.07,1.72,1.19M218.06,46.4l-.98.88-2.47-1.81,1.91-1.95,1.54,2.88M182.74,68.14l1.39,1.48-1.08,1.32-2.46-.99-1.3,2.81,1.16,3.8,1.81,1.57,2.6-.07-.36,1.73-1.14-.51-5.58-.57-3.67-3.34-4.88-2.61-2.73-4.41.4-2.36-1.34-2.11.27-2.13,3.42-3.17-1.71-2.01,1.17-.92,2.46.16,1.75,1.39-.74,1.84,4.09,2.61.81,1.63,2.89,1.08,1.2,1.53-1.36,1.8,2.93.45M166.02,56.15l-1.95,4.22-.91-1.2,2.86-3.02M216.87,50.42l.74,3.71-2.27-1.04-3.44-4.02-1.45-4.13-2.7-1.13-.12-2.03.83-2.28,1.72,2.01,2.55,5.29,2.66,1.75,1.48,1.87M193.54,44.1l3.51,1.94,3.33,2.82,4.55,2.07-.69,2.04-3.99,2.5-1.58,3.3-2.99-2.29-1.68-3.45-1.39-1.49.36-2.56-.87-2.64-2.64.7,1.04,5.68,2,1.53,1.69,5.09-2.34,1.86-4.21-.73-1.57-1.43-.23-4.05-1.08.49-1.53-2.05-.79.82,1.6,4.72-1.37.15-1.58-2.25-1.84.7-.02-2.46,1.77-3.35,2.53-2.73,2.25-1.42,1.77-3.35,3.49-.52,2.5.36M181.62,46.25l-2.82,2.39-.63-2.5-1.57-.61,1.97-2.58,2.73-.32.32,3.62M163.26,47.64l2.04.9.98-.88.73,2.07-1.41.78-3.6-1.51-1.49-2.68,2.22.02.53,1.3M172.4,257.58l-.38-.08-.09.07-.9-.01-3.07,2.23.39.72,3.58-2.94.47.01,1.76.38-.44,3.79-3.18.22-2.35,1.85.39,1.53,1.98-1.75,1.38.66,2.45-1.46,1.25-3.8,2.04.08,3.72-3.63.22-1.49,1.96,1.32-1.4,3.23-2.21,1.6-.98,1.69.49,2.72-2.22.79-.93,1.88-1.7.45.29,1.14,5.57-3.5,1.07,2.58,2.82,3.13,1.05-5.38.11-2.68-1.02-3.2,2.08-.55,2.07-2.18,1.75-.25.63,1.67-.97,2.5,1.44,1.66.51-5.85,1.36-1.79,2.28,4.92.11,2.01,6.93,4.91,1.27-.54,1.24.09,2.9-4.44,2.78-1.76,1.15-3.36,2.12-1.18,1.05-4.56,1.41-1.6.44-2.97,2.76-4.2.59-2.41-1.64-3.24.52-.34,3.2,2.22,2.11,2.71,4.25,3.17,2.77-3.39-.49-1.1-2.62-.74,1.3-2.79.95-.25,7.47-2.39,1.45-1.4-.06-5.71-2.07-3.34-.7-3.49-2.33-1.22,1.5-1.22.69-2.84-3.56-5.19.04-5.33-1.74-2.81,3.01-2.44,2.4,3.05,1.8-.07.34-4.18-2.73-2.75-4.24-2.36-1.21-3.15,1.88-1.32.25-2.93,2.54-1.91.78-2.45-.98-3.02.46-1.35-1.3-2.73-.04-4.08,4.97-5.01,1.29-3.61-.49-1.11,1.42-4.67,1.17-1.75.2-3.13,5.34-1.21,2.85-3.01-.03-3.27,1.48-2.86-1.28-1.09-1.89.5-3.06-2.47-.54-2.11-1.37.16-2.29-2.67-.45-1.73-1.56-.6-2.19-5.37.32-1.93-.55-2.11,1.63-3.1-1.29-1.09-.45-2.55-1.77-2.2-2.12.37-1.15-1.34-2.36,1.04,1.21,2.34-1.96,2.58-1.46.59.17,3.03,2.88,4.98,1.43.85,4.31,5,1.93,4.41-2.89-1.08-.31-1.97-2.63-3.19-1.99-.7-2.07-3.35-1.88,1.32-2.24-1.66-.11-2.02-1.94-5.23-.26-2.59.98-6.42,2.4-.84,1.61.8,1.83-2.33,4.12,1.16,1.48,1.04.14.58,1.67-3.73,1.54-1.85-1.66-.99-1.65-4.08-1.57-.61-3.43-3.19-1.38-.66.18-1.69-2.41-2.05.3-.67v-.13l.42-.6-.29-5.87-.93-2.84,2.27.22,1.59-1.66-1.06-2.59-.25-6.51-1.05-.95.59-2.42,1.37.66,3.71-2.84,1.2-3.19-2.02-3.17-1.51-.41-2.11-2.73-1.19-1.53,1.11-1.95-.74-3.7-1.23-.09-.22-3.23,2.48-2.92-1.87-2.59-2.14-2.1-2.93-.45-2.78.95-3.03,3.89-1.9,3.59-2.06-2.53,2.46-5.39-2.82-3.98-2.46-.16-1.15-6.9-2.32-1.23-3.47-3.39.27-1.31,3.04-2.25.64-2.23-2.14-2.11-1.64,1.47-2.88-1.08.21-2.32,2.58-2.55,3.65,2.53,1.27-.55-.31-2.8-1.49-2.69,59.44,1.37,31.42,1.02,56.32.05,25.18.19,13.73.2,29.15-.08,34,.02,11.18-.36,31.5-.35,36.49-.5,26.03-.54,27.2-.67,30.79-.84,28.99-.78-.05-.19,40.3-1.45,27.58-.83,8.34-.46.96,21.01,1.82,47.55.76,15.66.89,24.45.28,13.09.24,9.19.48,9.33,1.29,29.64,1.89,37.85.77,16.4.68,14.57.62,18.06,1.9,40.82,1.73,39.39.66,15.96.69,1.03-1.03,5.19-1.43,2.22.96,2.8,2.92,1.04.3,2.58,3.28,2.37-.17,3.11,2.13,1.86,1.53,4.89-.45,3.6,3.89,3.83-.95,2.5.19,2.2-1.48,2.03-.7401,3.27-1.98.95.28,1.76,2.15.43,1.51,1.83,2.27,6.11.59,2.9M314.06,457.26l-2.2-.64-1.1-.32-9.39,2.87-3.48-.1-3.89,1.43-2.62.08-7.22-1.97-5.41,1.83-3.44,3.14.11,1.19-1.98,1.74-3.28.66-.84,1.44-3.88,2.23-4.04.86-5.4,3.44-3.91-.19-4.04.85-1.74,1.88M73.4,376.14l-.15-1.39-3.58-1.31,1.9-7.61.71-6.69.46-10.09.15-12.86-.37-11.72.94-1.87,1.39,2.29-.6,2.39,2.46,4.86-.46,10.09-.84,2.26.87,8.12.2,7.88.72,1.24,2.7-1.31,1.91,1.13.59-4.02,2.98-2.6-1.41-3.91,1.04-.68.4,3.15,1.52-.39-.78-3.05-2.44-2.42.18-1.68,1.61-.82.41-2.35,1.62.8,1.18-.92-.09-5.06-2.25-2.47-.59-3.11-2.53-1.99.07-2.87,2.82,1.51-1.12-3.58,1.84-1.49.83-3.88,1.23.08,5.96-4.4-1.25-1.71-2.24-.84-1.3-2.72-2.18.97-.03,2.25-3.04-.02-2.91-1.89.12,2.82-1.09,1.3-2.86-1.7-.37.91-6.82-3.73.04-7.75.13-1.87-2.16-10.85-.87-2.62,1.8-.88,2.43,2.42-1.07,2.12.77,2.24,4.09.98,2.16,2.9.7-1.2-3.54-3.57.7-2.83,1.56-1.01,3.13-.41,1.59-2.45,2.66.12,7.67-2.41,1.94-1.12,3.18-1.03-5.76-1.96-6.03.14.51-1.97-5.03.09-1.91-1.95,1.27-1.35-.95-.57-.78-3.05-3.15-2.04-5.83.09-2.32,1.22-.47,1.34,1.16,2.96-.16,4.12.64,3.3-2.09.54-.6,1.59-1.76.25.99-8,.05-6.95-.23-7.28-1.81-15.85-2.5-11.39-1.81-2.38-1.57.2-2.26-6.55-1.67-1-.7-5.94-.67-1.05-.06-9.79-.76-7.77-.99-7.91-2-10.31-1.35-3.74-.55-4.56-.77-3.07-2.86-2.52-1.53-2.87-.16-3.03-1.19-2.35-3.85-1.65-1.48-2.68-.01-1.64-4.65-2.46-2.09-1.91-.72-2.06.07-3.71-1.43-1.67-.2-2.4-1.04-.14.6-2.41-.81-2.45-.04-6.54-.96-3.02,1.02-3.96-3.5-9.93,2.83-2.38,1.35-4.25-1.25-2.54,2.03-2.38.55-2.6-.53-2.12,1.93-1.12.93-4.34-1.72-2.01-1.6.01-3.1-5.13,1.32-1.17,5.43.01,1.85.95,1.43,2.5,2.83-.75,2.46,1,2.48,2.63,1.04.14,9.58,6.91,3.04,2.48,1.94-.3,1.8,1.57,3.74,1.28.15,1.39,2.61.75,1.46-1.41,10.05,5.56,3.42,1.56-.41,2.36,3.93,2.04.91,1.2,7.2,2.2,2.36-.21,2.71,1.13,3.16-.22,1.48,1.05,3.63-.75.81.81,3.64.06,1.28-.54,4.11.35,1.13-1.12,3.22.79,3.09,1.85.29,1.16,3.51,1.12,4.1-2.11,3.9,2.66,4.16-.27.53,1.29,5.69,1.78,7.33.31,2.41-.84,3.64.88,3.02-1.61,2.96-2.63,5.48-.63,3.58,3.77,1.66.99,2.31,5.13-.6,1.59.64,2.5,2.16,3.73,1.52.41-1.08-4.22.31-1.93-1.29-1.91,2.31-1.22,4.81-.87,2.8.69-1.19,4.01,4.51,2.7,1.65,4.07-.93,1.88,1.29,1.1,1.92-1.95.71-5.1-2.04-.9-.63-1.67-3.23-1.61,1.3-1.98-.63-1.68,4.51-4.47,7.65-.81-.6,1.6,1.15,2.15-3.01,1.62-1.96,2.57,3.18,6.13,2.75,1.32,1.38,6.19,1.3,1.91,1.89.32.54,2.11-.88,2.07.32,3.61,2.06-2.19.37,3.8,2.12,3.53-1.93,1.95-3.98-.59.94,3.65-.46,1.35-4.1,2.92-1.23-.08-.51,5.87-1.06,2.94-2.3,2.86-.26,2.93,1.15,1.33-4.11,1.29-1.28-1.09.68-2.84.9-.44.34-4.18,1.17-1.75,1.22-6.25-1.8-4.65-1.23-.08-.59,2.41.87,1.81-.6,2.41-2.92,1.19.96-3.33-2.23-.84.19,5.47,1.34,1.29-1.21,2.37-1.19.1-1.09,4.39-.85.63.45,2.54-1.64,2.27.08,3.46-2.89-.26-.69,2.03-3.82,2.43-.56.97-2.6,5.6-2.44,3.09-1.85,5.4-4.12,5.17-.95.25-2.08,6.06-.93,1.88-1.94,6.64,1.68,1.81,2.7.31.6-2.4,3.14,1.21,4.92-.48,2.97-2.62,7.18-1.89,6.49-6.2-.25-.96-2.02,1.55-2.98.99-3.81,2.44-3.41.9-3.44,2.33-1.21,2.36-1.51.4-.78-1.43-5.93-1.09-.49-1.92,3.68-7.71,4.82-6.38.92-3.51,4.69-5.33.97-3.32,4.15-1.91.59-3.23,3.87-1.43.71.43,1.59-2.47,1.44,1.67,2.92-2,4.62-1.63.83-2.27-.09-5.09,1.87-2.95,1.48-3.67,2.07-1.36,1.01-3.14,4.69-4.52.95-.25,1.49-2.85,2.7.31-.48,4.43,1.71.36-.68-6.57-2.15-6.81-1.62-.8-.11-2.02,1.32-.35.78,2.25,4.03.78,2.28,1.03,1.13,4.41.3,6.68,2.45,3.24-1.87,2.95,1.57.61.83,2.44-.16,2.5-1.28.55-5.92-.28-.07,2.07-2.95,3.44-.93,1.89-5.13-6.63-1.32,1.17,1.97,2.96,2.43.79.09,5.09-.36,1.73,2.2,2.28-.67,4.48.44.9-1.62,3.91-4.16-3.61-.55-2.92-1.53-1.23.51-1.98-1.25-1.71-1.13,1.11-.92,2.7-.03,2.26,1.99-.12-.44,2.99,1.15,1.33.93-1.07,3.42.73.4,2.35-4.53,2.02,2.34,1.22,2.64-1.51,1.42.03,1.44-2.22,3.38-3.35,2.12,3.53-1.12,1.11-.48,4.43,2.04.07,2.76,2.13-3.5,5.22-.44,2.98.26,2.59-1.91,3.57,1.13,3.59-3.49,6.84,2.14,5.98-1.54,2.65-2.26,1.41-1.26-2.53-1.13.3-5.91-2.52-1.8.06,1.85-4.57,2.23-.79-1.4-2.29,3.39-2.53,1.22-1.55-.28-4.22-.62-.04-.58,3.22-5.33,2.84.14.57-3.25,2.29.06,1.01-2.6,5.59.04,4.07,2.53,1.99.08,3.45-1.6,1.65-1.23-.09.4,2.35-.74,2.64-1.7.45-.21-2.39-1.33-.47-3.58-7.63,1.52-4.29,2.77-3.38-.69-2.68.54-2.59-1.06-2.58-1.81-5.45-.92,2.69.67,1.05-1.13,5.82-1.12,1.93-1.75.25-2.12,1.99-3.96,1.86.03,4.08-1.22.73.44,1.72-.83,2.26.58,1.48-2.47-.17-3.27.66-.53-1.29-5.31.58-.91-1.19,2.41-1.66-.77-1.43-3.86,3.88,3.23.78,5.03-.1.81.81,4.69-.62.77.62-2.76,4.19-1.53-.41-2.87,2.18-2.28-.04M180.32,3.8l1.11,3.62-5.7.49-.46-4.2,5.05.09" fill="none" stroke="rgba(0, 0, 0, .2)" stroke-linecap="round" stroke-linejoin="round"/>
  </g>
  <g id="labels">
    <text transform="translate(390.2196 717.8)" font-family="Helvetica, Helvetica" font-size="13" isolation="isolate"><tspan x="0" y="0">Oregon</tspan></text>
    <text transform="translate(412.8131 231.6)" font-family="Helvetica, Helvetica" font-size="13" isolation="isolate"><tspan x="0" y="0" letter-spacing="-.0366em">W</tspan><tspan x="11.7939" y="0">ashington</tspan></text>
  </g>
</svg>